<svg fill="none" height="1000" viewBox="0 0 1000 1000" width="1000" xmlns="http://www.w3.org/2000/svg"><path d="m778 0h-556c-122.6072 0-222 99.3928-222 222v556c0 122.607 99.3928 222 222 222h556c122.607 0 222-99.393 222-222v-556c0-122.6072-99.393-222-222-222z" fill="#d4d4d2"/><path d="m690 125h-381c-38.66 0-70 31.34-70 70v610c0 38.66 31.34 70 70 70h381c38.66 0 70-31.34 70-70v-610c0-38.66-31.34-70-70-70z" fill="#1c1c1c"/><path d="m291 231.4c0-19.042 0-28.563 3.706-35.836 3.259-6.397 8.461-11.599 14.858-14.858 7.273-3.706 16.794-3.706 35.836-3.706h308.2c19.042 0 28.563 0 35.836 3.706 6.397 3.259 11.599 8.461 14.858 14.858 3.706 7.273 3.706 16.794 3.706 35.836v68.2c0 19.042 0 28.563-3.706 35.836-3.259 6.397-8.461 11.599-14.858 14.858-7.273 3.706-16.794 3.706-35.836 3.706h-308.2c-19.042 0-28.563 0-35.836-3.706-6.397-3.259-11.599-8.461-14.858-14.858-3.706-7.273-3.706-16.794-3.706-35.836z" fill="#505050"/><path d="m656 823c28.719 0 52-23.281 52-52s-23.281-52-52-52-52 23.281-52 52 23.281 52 52 52z" fill="#ff9500"/><path d="m500 719h-156c-28.719 0-52 23.281-52 52s23.281 52 52 52h156c28.719 0 52-23.281 52-52s-23.281-52-52-52z" fill="#d4d4d2"/><path d="m656 666c28.719 0 52-23.281 52-52s-23.281-52-52-52-52 23.281-52 52 23.281 52 52 52z" fill="#ff9500"/><path d="m500 666c28.719 0 52-23.281 52-52s-23.281-52-52-52-52 23.281-52 52 23.281 52 52 52z" fill="#d4d4d2"/><path d="m344 666c28.719 0 52-23.281 52-52s-23.281-52-52-52-52 23.281-52 52 23.281 52 52 52z" fill="#d4d4d2"/><path d="m656 510c28.719 0 52-23.281 52-52s-23.281-52-52-52-52 23.281-52 52 23.281 52 52 52z" fill="#ff9500"/><g fill="#d4d4d2"><path d="m500 510c28.719 0 52-23.281 52-52s-23.281-52-52-52-52 23.281-52 52 23.281 52 52 52z"/><path d="m344 510c28.719 0 52-23.281 52-52s-23.281-52-52-52-52 23.281-52 52 23.281 52 52 52z"/></g></svg>